<?xml version="1.0" encoding="UTF-8" standalone="no"?>
<!DOCTYPE svg PUBLIC "-//W3C//DTD SVG 1.1//EN" "http://www.w3.org/Graphics/SVG/1.1/DTD/svg11.dtd">
<!-- Created with Vectornator (http://vectornator.io/) -->
<svg height="100%" stroke-miterlimit="10" style="fill-rule:nonzero;clip-rule:evenodd;stroke-linecap:round;stroke-linejoin:round;" version="1.1" viewBox="339.255 396 185.491 33.5802" width="100%" xml:space="preserve" xmlns="http://www.w3.org/2000/svg" xmlns:vectornator="http://vectornator.io" xmlns:xlink="http://www.w3.org/1999/xlink">
<defs/>
<g id="Layer">
<g opacity="1">
<g opacity="1">
<path d="M342.886 412.406L353.506 412.406L354.498 406.819L343.878 406.819L342.886 412.406Z" fill="#257abf" fill-rule="nonzero" opacity="1" stroke="none"/>
<path d="M339.255 403.867L354.916 403.867L356.352 396.454L340.688 396.454L339.255 403.867Z" fill="#257abf" fill-rule="nonzero" opacity="1" stroke="none"/>
<path d="M410.057 403.627C405.674 403.627 404.422 406.246 403.683 410.57L402.942 415.008C402.772 416.089 402.658 417 402.658 417.855C402.658 420.531 403.738 422.007 406.816 422.007C408.691 422.007 410.399 421.837 411.537 421.667L414.668 403.911C413.643 403.741 411.936 403.627 410.057 403.627M424.683 399.131L419.847 426.447C419.675 427.36 419.393 427.759 417.797 428.099C414.385 428.893 409.943 429.578 405.564 429.578C397.935 429.578 393.554 424.855 393.554 417.967C393.554 417 393.609 416.03 393.781 415.008L394.52 410.57C396.341 399.698 402.146 396 411.367 396C415.748 396 420.074 396.683 423.205 397.481C424.173 397.705 424.74 397.879 424.74 398.734C424.74 398.848 424.683 398.959 424.683 399.131" fill="#257abf" fill-rule="nonzero" opacity="1" stroke="none"/>
<path d="M460.372 397.766L448.645 423.603C446.371 428.664 442.672 429.578 439.314 429.578C435.957 429.578 432.714 428.664 432.199 423.603L429.637 397.766L429.637 397.649C429.637 396.97 430.152 396.454 430.719 396.454L438.063 396.454C438.63 396.454 438.972 396.97 439.029 397.649L439.997 419.96C440.054 420.816 440.281 421.154 440.68 421.154C441.078 421.154 441.419 420.816 441.761 419.96L450.581 397.649C450.867 396.97 451.434 396.454 452.005 396.454L459.689 396.454C460.143 396.454 460.485 396.798 460.485 397.252C460.485 397.422 460.428 397.592 460.372 397.766" fill="#257abf" fill-rule="nonzero" opacity="1" stroke="none"/>
<path d="M477.561 403.398C473.692 403.398 471.87 406.017 471.017 409.944L481.715 409.944C481.887 409.031 482 408.18 482 407.439C482 404.822 480.749 403.398 477.561 403.398M490.31 410.967L489.741 414.268C489.569 415.125 489.058 415.635 488.319 415.635L470.047 415.635C469.935 416.488 469.82 417.282 469.82 417.967C469.82 420.928 471.244 421.952 474.889 421.952C478.472 421.952 483.596 421.667 485.929 421.438L486.099 421.438C486.61 421.438 487.007 421.667 487.007 422.181L487.007 422.352L486.211 426.676C486.041 427.587 485.812 427.988 484.789 428.211C480.977 429.124 477.789 429.578 472.836 429.578C466.691 429.578 460.888 426.05 460.888 418.139C460.888 417.173 461 416.089 461.172 414.953L461.854 410.967C463.56 401.065 469.538 396 478.871 396C486.553 396 490.594 401.237 490.594 407.893C490.594 408.861 490.482 409.944 490.31 410.967" fill="#257abf" fill-rule="nonzero" opacity="1" stroke="none"/>
<path d="M524.461 408.52L521.046 427.873C520.931 428.498 520.364 429.067 519.734 429.067L512.736 429.067C512.169 429.067 511.768 428.666 511.768 428.101C511.768 428.045 511.825 427.929 511.825 427.873L515.355 407.838C515.469 407.153 515.525 406.584 515.525 406.017C515.525 404.539 514.898 403.571 512.736 403.571L509.891 403.571C506.93 403.571 506.306 405.051 505.794 407.838L502.264 427.873C502.154 428.498 501.522 429.067 500.901 429.067L493.899 429.067C493.328 429.067 492.988 428.61 492.988 428.101C492.988 428.045 493.046 427.929 493.046 427.873L496.684 407.153C498.053 399.358 503.005 396 511.199 396L514.047 396C521.103 396 524.745 399.474 524.745 405.391C524.745 406.358 524.631 407.441 524.461 408.52" fill="#257abf" fill-rule="nonzero" opacity="1" stroke="none"/>
<path d="M390.018 396.456L383.189 396.456C382.563 396.456 381.994 396.972 381.88 397.594L378.751 415.239C377.838 420.533 375.618 421.385 372.661 421.385C371.464 421.385 370.441 421.327 369.473 420.988L373.627 397.651L373.627 397.424C373.627 396.913 373.287 396.456 372.718 396.456L365.72 396.456C365.09 396.456 364.464 397.025 364.353 397.651L360.254 420.988C359.172 421.327 358.147 421.385 356.953 421.385C354.336 421.385 352.74 420.928 352.74 417.857C352.74 417.294 352.822 416.572 352.943 415.766L343.791 415.766C343.642 416.707 343.579 417.62 343.579 418.483C343.579 425.995 348.872 429.58 354.674 429.58C357.862 429.58 360.541 429.24 363.668 427.644C366.229 429.24 369.301 429.58 372.489 429.58C380.515 429.58 385.979 426.108 387.914 415.239L391.043 397.594L391.043 397.424C391.043 396.855 390.589 396.456 390.018 396.456" fill="#257abf" fill-rule="nonzero" opacity="1" stroke="none"/>
</g>
</g>
</g>
</svg>
